Coordinates
version=1
nRows=19
nColumns=63
inDegrees=yes

Units are S.I. units (second, meters, Newtons, ...)
If the header above contains a line with 'inDegrees', this indicates whether rotational values are in degrees (yes) or radians (no).

endheader
time	pelvis_tilt	pelvis_list	pelvis_rotation	pelvis_tx	pelvis_ty	pelvis_tz	hip_flexion_r	hip_adduction_r	hip_rotation_r	knee_angle_r	knee_angle_r_beta	ankle_angle_r	subtalar_angle_r	mtp_angle_r	hip_flexion_l	hip_adduction_l	hip_rotation_l	knee_angle_l	knee_angle_l_beta	ankle_angle_l	subtalar_angle_l	mtp_angle_l	L5_S1_Flex_Ext	L5_S1_Lat_Bending	L5_S1_axial_rotation	L4_L5_Flex_Ext	L4_L5_Lat_Bending	L4_L5_axial_rotation	L3_L4_Flex_Ext	L3_L4_Lat_Bending	L3_L4_axial_rotation	L2_L3_Flex_Ext	L2_L3_Lat_Bending	L2_L3_axial_rotation	L1_L2_Flex_Ext	L1_L2_Lat_Bending	L1_L2_axial_rotation	L1_T12_Flex_Ext	L1_T12_Lat_Bending	L1_T12_axial_rotation	Abs_r3	Abs_r2	Abs_r1	Abs_t1	Abs_t2	neck_flexion	neck_bending	neck_rotation	arm_flex_r	arm_add_r	arm_rot_r	elbow_flex_r	pro_sup_r	wrist_flex_r	wrist_dev_r	arm_flex_l	arm_add_l	arm_rot_l	elbow_flex_l	pro_sup_l	wrist_flex_l	wrist_dev_l
0.000000	-4.182408	-6.543346	100.768394	0.186662	1.145844	0.406863	0.159608	-2.402702	-10.440451	1.077870	0.018812	16.511082	7.981366	0.000000	3.953421	2.329037	-3.026615	6.094207	0.106364	13.504033	6.879887	0.000000	-0.092649	-0.455338	-1.104558	-0.172059	-0.605600	-1.173593	-0.152214	-1.107109	-1.173593	-0.105889	-1.107109	-0.966488	-0.086034	-0.928526	-0.897453	-0.052940	-0.705319	-0.828419	-0.661786	-5.150877	-6.143221	0.000000	0.000000	7.640191	0.865642	-4.885069	8.096501	-7.530975	62.740241	70.096938	1.529245	19.361853	-29.154195	19.452864	-8.004437	65.824605	36.385648	83.340562	-11.458007	3.798883
0.016949	-4.025403	-6.668092	99.837952	0.187633	1.144569	0.408523	0.688686	-2.376697	-9.729080	1.552120	0.027090	17.237385	8.613906	0.000000	4.322768	2.256813	-2.057063	6.654635	0.116145	13.781885	4.541654	0.000000	-0.064231	-0.431052	-0.961450	-0.119283	-0.573299	-1.021541	-0.105525	-1.048060	-1.021541	-0.073410	-1.048060	-0.841269	-0.059645	-0.879001	-0.781178	-0.036702	-0.667700	-0.721088	-0.458796	-4.876146	-5.347299	0.000000	0.000000	7.733020	1.339689	-4.180188	10.359421	-7.397261	66.661802	69.428866	10.182105	9.981962	-24.781824	21.457573	-6.504472	77.868801	34.635862	90.986870	-17.006522	3.414812
0.033898	-3.942545	-6.835534	98.946976	0.188479	1.143531	0.410439	1.283471	-2.421605	-9.153695	2.030529	0.035439	17.840874	9.321897	0.000000	4.742880	2.234187	-1.619050	7.137465	0.124572	13.993468	2.837751	0.000000	-0.039966	-0.414655	-0.814628	-0.074221	-0.551491	-0.865542	-0.065660	-1.008191	-0.865542	-0.045677	-1.008191	-0.712800	-0.037113	-0.845564	-0.661885	-0.022837	-0.642300	-0.610971	-0.285474	-4.690656	-4.530717	0.000000	0.000000	7.870353	1.631077	-3.652698	12.044627	-7.202116	68.979725	68.958891	18.202341	2.986131	-20.275421	23.161154	-5.120693	89.681637	32.454985	94.607217	-20.932970	2.543903
0.050847	-3.925837	-7.037417	98.101775	0.189203	1.142710	0.412551	1.926686	-2.528767	-8.703624	2.506173	0.043741	18.330992	10.085814	0.000000	5.200752	2.256293	-1.644529	7.546955	0.131719	14.143717	1.703914	0.000000	-0.019802	-0.405380	-0.666688	-0.036774	-0.539156	-0.708356	-0.032532	-0.985641	-0.708356	-0.022631	-0.985641	-0.583352	-0.018388	-0.826651	-0.541684	-0.011315	-0.627934	-0.500016	-0.141442	-4.585741	-3.707921	0.000000	0.000000	8.047821	1.761348	-3.283297	13.213341	-6.956564	69.873422	68.634055	25.624055	-1.891834	-15.709895	24.570932	-3.871620	101.050700	29.946047	94.759081	-23.415431	1.274571
0.067797	-3.967282	-7.265486	97.308656	0.189806	1.142088	0.414799	2.601053	-2.689525	-8.368194	2.972130	0.051873	18.717184	10.886134	0.000000	5.683377	2.318267	-2.065451	7.887365	0.137660	14.237565	1.075881	0.000000	-0.003685	-0.402463	-0.520229	-0.006843	-0.535275	-0.552743	-0.006053	-0.978548	-0.552743	-0.004211	-0.978548	-0.455200	-0.003422	-0.820702	-0.422686	-0.002105	-0.623415	-0.390171	-0.026319	-4.552738	-2.893355	0.000000	0.000000	8.261053	1.752044	-3.052681	13.926785	-6.671628	69.522307	68.401400	32.481347	-4.918123	-11.160156	25.694230	-2.775776	111.763578	27.212081	91.999940	-24.631985	-0.304768
0.084746	-4.058880	-7.511484	96.573927	0.190289	1.141642	0.417122	3.289294	-2.895218	-8.136735	3.421476	0.059716	19.008896	11.703333	0.000000	6.177748	2.415245	-2.813765	8.162955	0.142470	14.279945	0.889389	0.000000	0.008439	-0.405136	-0.377846	0.015671	-0.538831	-0.401461	0.013864	-0.985048	-0.401461	0.009644	-0.985048	-0.330615	0.007836	-0.826154	-0.307000	0.004822	-0.627556	-0.283384	0.060275	-4.582981	-2.101465	0.000000	0.000000	8.505683	1.624706	-2.941550	14.246180	-6.358332	68.105792	68.207968	38.808317	-6.358928	-6.701112	26.538372	-1.851680	121.607857	24.356119	86.887271	-24.760713	-2.105698
0.101695	-4.192634	-7.767155	95.903897	0.190656	1.141355	0.419459	3.974131	-3.137188	-7.998574	3.847288	0.067148	19.215572	12.517887	0.000000	6.670860	2.542364	-3.821423	8.377984	0.146223	14.275792	1.080175	0.000000	0.016621	-0.412635	-0.242137	0.030867	-0.548804	-0.257271	0.027306	-1.003280	-0.257271	0.018996	-1.003280	-0.211870	0.015434	-0.841445	-0.196737	0.009497	-0.639171	-0.181603	0.118721	-4.667807	-1.346695	0.000000	0.000000	8.777340	1.400878	-2.930600	14.232749	-6.027700	65.803291	68.000800	44.639064	-6.480442	-2.407673	27.110683	-1.117854	130.371125	21.481193	79.978552	-23.979696	-4.039803
0.118644	-4.360546	-8.024243	95.304872	0.190906	1.141206	0.421751	4.638287	-3.406776	-7.943041	4.242644	0.074048	19.346656	13.310273	0.000000	7.149705	2.694758	-5.020376	8.536711	0.148994	14.230038	1.583976	0.000000	0.020916	-0.424193	-0.115700	0.038842	-0.564176	-0.122932	0.034362	-1.031382	-0.122932	0.023904	-1.031382	-0.101238	0.019422	-0.865013	-0.094007	0.011951	-0.657074	-0.086775	0.149398	-4.798551	-0.643491	0.000000	0.000000	9.071655	1.102100	-3.000529	13.947712	-5.690755	62.794217	67.726938	50.007690	-5.548855	1.645253	27.418485	-0.592819	137.840967	18.690334	71.831261	-22.467012	-6.018668
0.135593	-4.554618	-8.274493	94.783162	0.191043	1.141176	0.423935	5.264483	-3.695323	-7.959463	4.600619	0.080296	19.411593	14.060968	0.000000	7.601278	2.867564	-6.342575	8.643397	0.150856	14.147618	2.336530	0.000000	0.021376	-0.439044	-0.001132	0.039697	-0.583928	-0.001203	0.035118	-1.067490	-0.001203	0.024430	-1.067490	-0.000991	0.019850	-0.895298	-0.000920	0.012214	-0.680078	-0.000849	0.152686	-4.966548	-0.006298	0.000000	0.000000	9.384261	0.749916	-3.132034	13.452292	-5.358521	59.257982	67.333423	54.948294	-3.830360	5.382756	27.469103	-0.295097	143.804971	16.086574	63.002875	-20.400743	-7.953878
0.152542	-4.766852	-8.509649	94.345073	0.191068	1.141243	0.425952	5.835442	-3.994169	-8.037169	4.914291	0.085771	19.419828	14.750448	0.000000	8.012572	3.055917	-7.719970	8.702300	0.151884	14.033465	3.273572	0.000000	0.018055	-0.456422	0.098970	0.033530	-0.607041	0.105155	0.029663	-1.109744	0.105155	0.020635	-1.109744	0.086599	0.016766	-0.930735	0.080413	0.010317	-0.706997	0.074227	0.128965	-5.163135	0.550441	0.000000	0.000000	9.710786	0.365866	-3.305814	12.807709	-5.042021	55.374000	66.767298	59.494977	-1.591149	8.729927	27.269860	-0.243208	148.050724	13.772945	54.050873	-17.958970	-9.757015
0.169492	-4.989250	-8.721454	93.996914	0.190982	1.141389	0.427741	6.333886	-4.294655	-8.165488	5.176737	0.090351	19.380805	15.359189	0.000000	8.370580	3.254954	-9.084512	8.717680	0.152152	13.892512	4.330841	0.000000	0.011006	-0.475561	0.182009	0.020439	-0.632497	0.193384	0.018082	-1.156280	0.193384	0.012579	-1.156280	0.159258	0.010220	-0.969765	0.147882	0.006289	-0.736645	0.136507	0.078615	-5.379646	1.012278	0.000000	0.000000	10.046864	-0.028507	-3.502566	12.075187	-4.752280	51.321684	65.975603	63.681838	0.902588	11.611858	26.828081	-0.455673	150.365812	11.852480	45.532732	-15.319772	-11.339665
0.186441	-5.197889	-8.864157	93.753902	0.190781	1.141605	0.429224	6.703506	-4.574698	-8.353821	5.388091	0.094040	19.326496	15.854757	0.000000	8.626346	3.456752	-10.178901	8.721138	0.152213	13.717464	5.215759	0.000000	-0.005405	-0.495060	0.235606	-0.010038	-0.658430	0.250331	-0.008880	-1.203689	0.250331	-0.006178	-1.203689	0.206155	-0.005019	-1.009526	0.191430	-0.003089	-0.766848	0.176704	-0.038609	-5.600218	1.310369	0.000000	0.000000	10.439877	-0.317272	-3.697973	11.684815	-4.596552	47.319599	64.887732	67.969728	1.455634	14.201448	26.080785	-1.115194	147.577574	11.264228	41.248397	-13.474882	-11.986513
0.203390	-5.407533	-8.981669	93.657558	0.190460	1.141833	0.430184	6.952740	-4.849249	-8.671352	5.515243	0.096259	19.249742	16.302941	0.000000	8.803689	3.666539	-11.151378	8.687343	0.151623	13.544342	6.238162	0.000000	-0.021852	-0.517047	0.254274	-0.040581	-0.687673	0.270166	-0.035900	-1.257149	0.270166	-0.024974	-1.257149	0.222489	-0.020292	-1.054363	0.206597	-0.012486	-0.800906	0.190705	-0.156085	-5.848943	1.414193	0.000000	0.000000	10.837220	-0.532201	-3.826194	11.059117	-4.407709	43.665394	63.334018	71.164007	2.756206	15.602394	24.915465	-2.220711	141.851051	11.474799	38.802921	-11.592696	-12.159038
0.220339	-5.631127	-9.055260	93.692861	0.190109	1.142043	0.430593	7.050757	-5.120346	-8.956448	5.542217	0.096730	19.151889	16.509184	0.000000	8.876224	3.898868	-11.879021	8.614904	0.150358	13.353347	7.209340	0.000000	-0.041145	-0.544759	0.258006	-0.076411	-0.724530	0.274132	-0.067597	-1.324528	0.274132	-0.047025	-1.324528	0.225756	-0.038207	-1.110873	0.209630	-0.023510	-0.843832	0.193505	-0.293896	-6.162427	1.434954	0.000000	0.000000	11.226790	-0.642952	-4.029609	10.232491	-4.214543	40.177599	61.363536	73.114785	4.521282	15.972528	23.531034	-4.066690	129.077216	13.300754	42.489160	-10.270965	-11.594883
0.237288	-5.776559	-9.069191	93.845720	0.189479	1.142243	0.430456	6.993271	-5.303893	-9.170390	5.465943	0.095399	18.996972	16.452893	0.000000	8.835750	4.078100	-12.236340	8.505075	0.148442	13.161196	7.926817	0.000000	-0.061805	-0.560726	0.240337	-0.114779	-0.745765	0.255358	-0.101540	-1.363348	0.255358	-0.070637	-1.363348	0.210295	-0.057392	-1.143432	0.195274	-0.035316	-0.868564	0.180253	-0.441469	-6.343041	1.336682	0.000000	0.000000	11.571981	-0.751783	-4.132158	9.212938	-4.484852	32.661338	59.962270	77.348267	5.840729	15.806893	22.083737	-5.883379	118.001097	14.903064	45.174772	-9.150259	-10.981819
0.254237	-5.919068	-8.975984	94.112028	0.188847	1.142604	0.429897	6.733143	-5.459252	-9.345986	5.299294	0.092490	18.801192	16.177288	0.000000	8.631372	4.257994	-12.227182	8.357503	0.145866	12.899415	8.390200	0.000000	-0.087624	-0.575097	0.151920	-0.162726	-0.764879	0.161415	-0.143957	-1.398291	0.161415	-0.100145	-1.398291	0.132930	-0.081367	-1.172738	0.123435	-0.050068	-0.890825	0.113940	-0.625888	-6.505611	0.844931	0.000000	0.000000	11.730072	-0.787666	-3.827316	9.656585	-4.399286	30.558413	56.512357	84.869746	2.680768	13.943447	20.508340	-7.851917	108.329607	16.368472	47.206380	-8.372069	-10.242712
0.271186	-6.018164	-8.839354	94.472939	0.188091	1.142897	0.428762	6.334648	-5.556549	-9.409039	5.039067	0.087948	18.598358	15.645960	0.000000	8.319358	4.408099	-11.882930	8.161982	0.142453	12.629954	8.633479	0.000000	-0.112553	-0.584786	0.061149	-0.209022	-0.777766	0.064971	-0.184913	-1.421850	0.064971	-0.128637	-1.421850	0.053506	-0.104517	-1.192496	0.049684	-0.064313	-0.905834	0.045862	-0.803953	-6.615221	0.340095	0.000000	0.000000	11.834826	-0.796973	-3.585488	10.217271	-4.516135	31.067916	52.389556	90.977569	0.644917	11.685925	18.976151	-9.730947	100.533701	17.652867	48.797491	-8.031787	-9.321732
0.288136	-6.075644	-8.666754	94.916710	0.187240	1.143061	0.427090	5.816435	-5.596910	-9.368628	4.696138	0.081963	18.426803	14.910070	0.000000	7.915469	4.530164	-11.146704	7.927401	0.138359	12.358237	8.558907	0.000000	-0.135667	-0.589787	-0.016301	-0.251948	-0.784417	-0.017320	-0.222888	-1.434008	-0.017320	-0.155054	-1.434008	-0.014263	-0.125981	-1.202694	-0.013245	-0.077520	-0.913580	-0.012226	-0.969059	-6.671788	-0.090661	0.000000	0.000000	11.904854	-0.811417	-3.481980	10.683718	-4.680365	33.491457	47.749520	95.697896	-0.403720	9.415665	17.563448	-11.408492	94.817131	18.684862	50.265209	-8.269240	-8.237443
0.305085	-6.082829	-8.441347	95.416024	0.186302	1.143098	0.424986	5.183775	-5.570822	-9.231041	4.288228	0.074844	18.320374	14.033384	0.000000	7.411923	4.610673	-10.054199	7.655166	0.133608	12.106208	8.169430	0.000000	-0.158323	-0.588114	-0.084175	-0.294022	-0.782191	-0.089436	-0.260109	-1.429940	-0.089436	-0.180947	-1.429940	-0.073653	-0.147019	-1.199282	-0.068392	-0.090466	-0.910988	-0.063132	-1.130886	-6.652861	-0.468158	0.000000	0.000000	11.925280	-0.849817	-3.474954	11.168095	-4.942828	38.245929	42.957852	92.263797	-1.942121	7.338497	16.290383	-12.821099	91.046864	19.396158	52.002104	-9.197538	-6.980950
